# xmcd
#
# Track frame offsets:
#	150
#	22344
#	46758
#	63939
#	84149
#	101653
#	129089
#	150065
#	167826
#	190688
#	214910
#	240938
#	259177
#	278201
#	327322
#
# Disc length: 4595 seconds
#
# Revision: 0
# Processed by: cddbd v1.5.2PL0 Copyright (c) Steve Scherf et al.
# Submitted via: EZCDAudioConverter 1.0.2.1
#
DISCID=bb11f10f
DTITLE=Various Artist - Steppin' Music Vol 25
DYEAR=2012
DGENRE=R&B
TTITLE0=Eric Benet - Feninity
TTITLE1=Chante' Moore - I Cry To Myself
TTITLE2=Michelle' feat. Wale - Irene
TTITLE3=The Gotasn Project - Epoca
TTITLE4=Graig Mack - Flava In Ya Ear
TTITLE5=James Harris III - This Is Your Life
TTITLE6=Luther Vandross - Don't You Know That 
TTITLE7=DEnnis Taylor - It Had To Be You
TTITLE8=L'Renee - With Or Without Me
TTITLE9=DJ Ebony D  - Take Off (DJ John  Adele Remix)
TTITLE10=Yvonne Guiliano - Praiano
TTITLE11=Pete Balesco - I Ain't Doin' It
TTITLE12=Dialtone - One Of These Days
TTITLE13=Kero One - This Life Ain't Mine
TTITLE14=Lucy Pearl - Dance Tonight
EXTD=
EXTT0=
EXTT1=
EXTT2=
EXTT3=
EXTT4=
EXTT5=
EXTT6=
EXTT7=
EXTT8=
EXTT9=
EXTT10=
EXTT11=
EXTT12=
EXTT13=
EXTT14=
PLAYORDER=
